<svg width="56" height="56" viewBox="0 0 56 56" fill="none" xmlns="http://www.w3.org/2000/svg">
<path d="M35 17.01V7.00002C35 5.71669 33.95 4.66669 32.6666 4.66669H23.3333C22.05 4.66669 21 5.71669 21 7.00002V17.01C21 17.3134 21.1166 17.6167 21.35 17.8267L27.1833 23.66C27.65 24.1267 28.3733 24.1267 28.84 23.66L34.6733 17.8267C34.8833 17.6167 35 17.3367 35 17.01ZM17.01 21H6.99996C5.71663 21 4.66663 22.05 4.66663 23.3334V32.6667C4.66663 33.95 5.71663 35 6.99996 35H17.01C17.3133 35 17.6166 34.8834 17.8266 34.65L23.66 28.8167C24.1266 28.35 24.1266 27.6267 23.66 27.16L17.8266 21.3267C17.7196 21.2199 17.5921 21.136 17.4517 21.0798C17.3114 21.0237 17.1611 20.9965 17.01 21ZM21 38.99V49C21 50.2834 22.05 51.3334 23.3333 51.3334H32.6666C33.95 51.3334 35 50.2834 35 49V38.99C35.0018 38.837 34.9717 38.6853 34.9114 38.5447C34.8511 38.404 34.762 38.2775 34.65 38.1734L28.8166 32.34C28.35 31.8734 27.6266 31.8734 27.16 32.34L21.3266 38.1734C21.1166 38.3834 21 38.6634 21 38.99ZM38.15 21.35L32.3166 27.1834C31.85 27.65 31.85 28.3734 32.3166 28.84L38.15 34.6734C38.36 34.8834 38.6633 35.0234 38.9666 35.0234H49C50.2833 35.0234 51.3333 33.9734 51.3333 32.69V23.3567C51.3333 22.0734 50.2833 21.0234 49 21.0234H38.99C38.8345 21.012 38.6784 21.0355 38.5331 21.092C38.3878 21.1485 38.2569 21.2366 38.15 21.35Z" fill="#B3FA95"/>
</svg>
