<svg width="56" height="56" viewBox="0 0 56 56" fill="none" xmlns="http://www.w3.org/2000/svg">
<path d="M51.3007 22.7267L51.282 22.5214C51.0751 19.5794 49.7624 16.8249 47.6076 14.8112C45.4529 12.7976 42.6158 11.6742 39.6667 11.6667H16.3333C13.3428 11.6532 10.4626 12.7955 8.2943 14.8551C6.12598 16.9147 4.83717 19.7324 4.697 22.7197C4.67522 22.9017 4.66511 23.0985 4.66667 23.31V38.5C4.66667 40.6583 5.537 42.7653 7.05133 44.2773C8.58798 45.8054 10.6663 46.6642 12.8333 46.6667C17.0333 46.6667 18.676 44.3333 21 39.6667C21.3407 38.9853 23.3147 35 28 35C32.6573 35 34.657 38.983 35 39.6667C37.3427 44.3333 38.9667 46.6667 43.1667 46.6667C45.325 46.6667 47.432 45.7963 48.944 44.282C50.472 42.7454 51.3309 40.6671 51.3333 38.5V23.3334C51.3333 23.114 51.3224 22.9118 51.3007 22.7267ZM16.3333 28.0723C15.7119 28.0864 15.0939 27.9762 14.5156 27.7481C13.9373 27.52 13.4105 27.1787 12.9659 26.7442C12.5214 26.3097 12.1681 25.7908 11.9269 25.2179C11.6857 24.645 11.5613 24.0297 11.5612 23.408C11.561 22.7864 11.685 22.171 11.926 21.598C12.1669 21.025 12.5199 20.5059 12.9643 20.0712C13.4086 19.6365 13.9353 19.2949 14.5134 19.0665C15.0916 18.8382 15.7095 18.7276 16.331 18.7413C17.5503 18.7683 18.7106 19.2715 19.5635 20.1433C20.4164 21.0151 20.8942 22.1861 20.8945 23.4057C20.8948 24.6253 20.4176 25.7966 19.5652 26.6688C18.7127 27.541 17.5526 28.0448 16.3333 28.0723ZM39.6667 16.4057C40.2855 16.4057 40.879 16.6515 41.3166 17.0891C41.7542 17.5267 42 18.1202 42 18.739C42 19.3579 41.7542 19.9513 41.3166 20.3889C40.879 20.8265 40.2855 21.0724 39.6667 21.0724C39.0478 21.0724 38.4543 20.8265 38.0168 20.3889C37.5792 19.9513 37.3333 19.3579 37.3333 18.739C37.3333 18.1202 37.5792 17.5267 38.0168 17.0891C38.4543 16.6515 39.0478 16.4057 39.6667 16.4057ZM35 25.739C34.3812 25.739 33.7877 25.4932 33.3501 25.0556C32.9125 24.618 32.6667 24.0245 32.6667 23.4057C32.6667 22.7868 32.9125 22.1934 33.3501 21.7558C33.7877 21.3182 34.3812 21.0724 35 21.0724C35.6188 21.0724 36.2123 21.3182 36.6499 21.7558C37.0875 22.1934 37.3333 22.7868 37.3333 23.4057C37.3333 24.0245 37.0875 24.618 36.6499 25.0556C36.2123 25.4932 35.6188 25.739 35 25.739ZM39.6667 30.4057C39.0478 30.4057 38.4543 30.1599 38.0168 29.7223C37.5792 29.2847 37.3333 28.6912 37.3333 28.0723C37.3333 27.4535 37.5792 26.86 38.0168 26.4224C38.4543 25.9848 39.0478 25.739 39.6667 25.739C40.2855 25.739 40.879 25.9848 41.3166 26.4224C41.7542 26.86 42 27.4535 42 28.0723C42 28.6912 41.7542 29.2847 41.3166 29.7223C40.879 30.1599 40.2855 30.4057 39.6667 30.4057ZM44.3333 25.739C43.7145 25.739 43.121 25.4932 42.6834 25.0556C42.2458 24.618 42 24.0245 42 23.4057C42 22.7868 42.2458 22.1934 42.6834 21.7558C43.121 21.3182 43.7145 21.0724 44.3333 21.0724C44.9522 21.0724 45.5457 21.3182 45.9832 21.7558C46.4208 22.1934 46.6667 22.7868 46.6667 23.4057C46.6667 24.0245 46.4208 24.618 45.9832 25.0556C45.5457 25.4932 44.9522 25.739 44.3333 25.739Z" fill="#B3FA95"/>
</svg>
